PathFileType	4	(X/Y/Z)	C:\Users\WrightLab\Desktop\Jo\P3_26.trc
DataRate	CameraRate	NumFrames	NumMarkers	Units	OrigDataRate	OrigDataStartFrame	OrigNumFrames
100.00	100.00	       49	19	mm	100.00	1	       638
Frame#	Time	Headset_Front			Headset_Back			Headset_Left			Headset_Right			Left_Shoulder			Right_Shoulder			Sternum			C7			Left Elbow			Right Elbow			Left Wrist			Right Wrist			Left ASIS			Right ASIS			S2			Left Knee			Right Knee			Left Ankle			Right Ankle			
		X1	Y1	Z1	X2	Y2	Z2	X3	Y3	Z3	X4	Y4	Z4	X5	Y5	Z5	X6	Y6	Z6	X7	Y7	Z7	X8	Y8	Z8	X9	Y9	Z9	X10	Y10	Z10	X11	Y11	Z11	X12	Y12	Z12	X13	Y13	Z13	X14	Y14	Z14	X15	Y15	Z15	X16	Y16	Z16	X17	Y17	Z17	X18	Y18	Z18	X19	Y19	Z19	

1	0.000																									-175.24364	959.44904	-1680.00928				-210.53041	782.08710	-1578.78674				-310.37424	816.45667	-1594.93872																			
2	0.010																									-174.97083	959.57214	-1679.53381				-209.86990	781.57245	-1577.58997				-310.06256	816.84424	-1593.24255																			
3	0.020																									-174.61734	959.72308	-1678.95190				-209.63321	781.76825	-1576.17688				-309.59103	816.62378	-1591.57068																			
4	0.030																									-173.82590	959.18555	-1677.23718				-209.88953	781.82483	-1573.27881				-308.95142	815.31842	-1590.88171																			
5	0.040																									-172.99344	959.20093	-1676.50488				-209.68896	781.94879	-1572.07678				-308.76471	815.13025	-1587.83594																			
6	0.050																									-172.63225	959.38580	-1675.79053				-209.54773	782.03204	-1571.22949				-308.48911	815.28253	-1586.30798																			
7	0.060																									-172.31055	959.55243	-1675.14661				-209.43365	782.13013	-1570.54895				-308.10168	815.68079	-1584.18689																			
8	0.070																									-171.94434	959.72443	-1674.48352				-208.66814	781.17010	-1572.87537				-307.96118	815.61792	-1583.38550																			
9	0.080																									-171.02263	959.78412	-1673.58032				-208.60364	780.46619	-1572.15356				-307.96021	815.33044	-1583.33472																			
10	0.090																									-170.64893	959.95898	-1672.90649				-208.54842	780.43304	-1571.81335				-307.83936	814.46844	-1582.86816																			
11	0.100																									-169.73956	959.47412	-1670.99182				-208.46669	780.48206	-1571.32263				-308.00592	814.01410	-1581.19177																			
12	0.110																									-169.15779	960.18744	-1671.12329				-208.26707	780.65833	-1570.13123				-307.93457	813.91040	-1580.77246																			
13	0.120																									-168.75992	960.38226	-1670.37256				-207.31183	778.25269	-1572.17896				-307.38068	813.14331	-1582.34534																			
14	0.130																									-167.89597	959.94794	-1668.37500				-207.05051	777.71594	-1571.60010				-307.30392	813.16663	-1581.91541																			
15	0.140																									-167.46852	960.16486	-1667.53967				-206.84071	777.98676	-1570.35889				-307.23602	813.20343	-1581.53784																			
16	0.150																									-167.02525	960.40863	-1666.59998				-206.64241	778.19690	-1569.17981				-306.38553	810.66992	-1583.72864																			
17	0.160																									-166.78386	959.98090	-1664.43579				-206.23006	778.73627	-1566.74048				-306.20389	810.82062	-1582.72705																			
18	0.170																									-166.11342	959.22668	-1661.73706				-205.85086	779.20697	-1564.49365				-305.97000	811.05658	-1581.44336																			
19	0.180																									-164.76132	958.34601	-1658.95251				-205.56349	779.56500	-1562.79102				-305.69864	811.39380	-1579.96399																			
20	0.190																									-163.51733	957.09106	-1655.31848				-205.29813	779.81506	-1561.20764				-305.36343	811.83215	-1578.13989																			
21	0.200																									-162.30266	957.64795	-1655.25037				-204.12340	776.60016	-1562.88647				-304.21777	811.53448	-1578.25684																			
22	0.210																									-161.80679	957.87256	-1654.39294				-204.61656	776.86993	-1558.96216				-303.85471	811.26959	-1575.95544										-549.88818	390.86057	-1610.53674							
23	0.220																									-161.32137	958.08282	-1653.59192				-204.48180	776.64545	-1558.11218				-303.42749	811.76294	-1573.61853										-547.97186	390.60974	-1603.35571							
24	0.230																									-160.41492	957.63611	-1651.66064				-205.03146	775.52020	-1553.75952				-303.14285	812.14795	-1572.07031										-546.86798	392.72586	-1594.13049							
25	0.240																									-159.56590	957.13745	-1649.93164				-204.99342	775.25433	-1553.49280				-303.08261	811.81384	-1570.12610										-547.07513	392.35959	-1588.87024							
26	0.250																									-159.31126	956.61365	-1648.17053				-204.91534	775.10425	-1552.99658				-303.01270	811.83508	-1569.73462										-546.82806	390.21808	-1585.92126							
27	0.260																									-158.66133	955.76074	-1645.88562				-203.80502	772.21429	-1556.78259				-302.37817	809.99640	-1571.25732										-546.85223	388.49948	-1584.69824							
28	0.270																									-157.66708	954.05157	-1642.31445				-203.96207	771.39343	-1555.95422				-302.26505	809.85925	-1570.59851										-547.26721	390.86703	-1573.79980							
29	0.280																									-156.34019	953.36145	-1640.52759				-204.55490	770.78998	-1552.88831				-302.78802	809.30011	-1568.24146										-546.85931	392.75635	-1564.83838							
30	0.290																									-156.02939	953.54572	-1639.82483				-205.24881	770.02173	-1549.10425				-302.79532	808.85834	-1568.21533										-546.63727	393.68726	-1556.34082							
31	0.300																									-156.14401	953.06616	-1638.51282				-204.29977	767.54108	-1552.01526				-303.84674	809.09961	-1564.32019										-546.92670	395.63629	-1550.62085							
32	0.310																									-154.43025	949.75952	-1630.76440				-204.11790	765.75500	-1550.89954				-303.83255	808.77917	-1564.18921										-548.19904	398.81241	-1542.04590							
33	0.320																									-154.23035	950.05963	-1629.60645				-204.02361	764.94037	-1549.98157				-303.92386	807.73779	-1563.57617										-549.39520	400.95605	-1534.43665							
34	0.330																									-154.41492	949.97760	-1627.56299				-204.80061	765.17401	-1545.65479				-303.90118	807.49756	-1563.40930										-549.39948	403.35745	-1524.29419							
35	0.340																									-154.32765	950.34247	-1626.14636				-205.23418	765.26007	-1543.13953				-304.63855	808.32074	-1560.32788										-551.34943	407.41617	-1516.59656							
36	0.350																									-153.74788	950.13580	-1623.51514				-204.71819	764.03497	-1543.79285				-305.25461	807.89825	-1557.62573										-552.94067	407.16263	-1516.30981							
37	0.360																									-154.03423	950.25201	-1621.27722				-204.94817	761.52979	-1543.19177				-305.46201	807.66669	-1556.22424										-554.06396	409.93140	-1510.38293							
38	0.370																									-153.55113	950.50446	-1619.18201				-205.00777	760.87329	-1543.46924				-305.94699	807.69305	-1554.16479										-555.63519	412.92496	-1502.50989							
39	0.380																									-153.23933	947.49054	-1611.16309				-205.88190	760.15924	-1540.08057				-305.96091	807.58142	-1554.22546										-556.10168	413.17566	-1500.64111							
40	0.390																									-153.22510	947.98853	-1609.23169				-205.79115	759.02405	-1540.45715				-306.46796	807.55518	-1552.28394										-558.99744	418.63110	-1487.85571							
41	0.400																									-154.29463	949.65802	-1610.48425				-205.78493	758.84729	-1540.39551				-307.31998	806.87714	-1548.34937										-559.57690	422.13953	-1477.27783							
42	0.410																									-154.59123	949.94873	-1607.82764				-207.50827	760.12244	-1534.19385				-307.33096	806.58899	-1548.36694										-562.56708	426.19458	-1472.37085							
43	0.420																									-154.78885	949.94318	-1604.32837				-207.98003	759.80627	-1532.58179				-308.28467	806.14508	-1545.37158										-565.40192	424.22083	-1476.94104							
44	0.430																									-154.75459	950.30664	-1601.56543				-208.57062	760.65839	-1529.03503				-308.76892	805.09039	-1543.81335										-568.92645	426.07404	-1473.22205				-565.04449	115.73227	-1614.88452	
45	0.440																									-154.67348	950.73840	-1598.47351				-208.63452	760.13403	-1527.69226				-309.85718	805.03363	-1539.07166										-571.13263	428.15665	-1468.34448				-565.87885	116.94571	-1605.76746	
46	0.450																									-154.89014	950.69513	-1594.54211				-209.29984	760.50464	-1524.87659				-309.47760	803.74701	-1540.30994										-573.35107	430.25854	-1463.54993				-568.23828	116.56785	-1596.58618	
47	0.460																									-154.96962	951.35614	-1591.69568				-210.08943	759.33661	-1522.02063	-658.15173	761.01178	-1555.63818	-310.07565	802.54834	-1537.30005										-576.07434	432.94547	-1458.96021				-568.89667	113.89570	-1593.77600	
48	0.470																									-154.44594	949.93304	-1584.74963				-210.12712	758.83685	-1522.18396	-659.77307	761.03497	-1552.98047	-310.55899	802.83362	-1534.55933										-579.14417	432.36526	-1459.90649				-572.80841	115.12292	-1576.34692	
49	0.480																									-155.92773	950.97449	-1583.02869				-210.66833	758.50439	-1520.29443	-660.88080	760.89667	-1552.84351	-310.60791	801.73071	-1533.22644										-581.96692	433.27731	-1457.71094				-574.54700	112.22804	-1569.34180	
